<?xml version="1.0" encoding="utf-8"?>
<!-- Generator: Adobe Illustrator 28.1.0, SVG Export Plug-In . SVG Version: 6.00 Build 0)  -->
<svg version="1.1"
	 id="svg4" xmlns:cc="http://creativecommons.org/ns#" xmlns:inkscape="http://www.inkscape.org/namespaces/inkscape" xmlns:sodipodi="http://sodipodi.sourceforge.net/DTD/sodipodi-0.dtd" xmlns:svg="http://www.w3.org/2000/svg" xmlns:rdf="http://www.w3.org/1999/02/22-rdf-syntax-ns#" xmlns:dc="http://purl.org/dc/elements/1.1/" sodipodi:docname="brightness-7.svg"
	 xmlns="http://www.w3.org/2000/svg" xmlns:xlink="http://www.w3.org/1999/xlink" x="0px" y="0px" viewBox="0 0 240 240"
	 style="enable-background:new 0 0 240 240;" xml:space="preserve">
<style type="text/css">
	.st0{fill:#B374E3;}
</style>
<sodipodi:namedview  bordercolor="#666666" borderopacity="1" gridtolerance="10" guidetolerance="10" id="namedview6" inkscape:current-layer="svg4" inkscape:cx="-267.45763" inkscape:cy="120" inkscape:pagecheckerboard="true" inkscape:pageopacity="0" inkscape:pageshadow="2" inkscape:window-height="740" inkscape:window-maximized="0" inkscape:window-width="1321" inkscape:window-x="45" inkscape:window-y="28" inkscape:zoom="0.98333333" objecttolerance="10" pagecolor="#ffffff" showgrid="false">
	</sodipodi:namedview>
<path id="path2" inkscape:connector-curvature="0" class="st0" d="M120,84.6c-19.5,0-35.4,15.8-35.4,35.4
	c0,19.5,15.8,35.4,35.4,35.4c19.5,0,35.4-15.8,35.4-35.4C155.4,100.5,139.5,84.6,120,84.6 M120,173.1c-29.3,0-53.1-23.8-53.1-53.1
	S90.7,66.9,120,66.9s53.1,23.8,53.1,53.1S149.3,173.1,120,173.1 M190.7,90.7V49.3h-41.5L120,20L90.7,49.3H49.3v41.5L20,120
	l29.3,29.3v41.5h41.5L120,220l29.3-29.3h41.5v-41.5L220,120L190.7,90.7z"/>
</svg>
