<?xml version="1.0" encoding="utf-8"?>
<!-- Generator: Adobe Illustrator 28.1.0, SVG Export Plug-In . SVG Version: 6.00 Build 0)  -->
<svg version="1.1"
	 id="svg4249" xmlns:sodipodi="http://sodipodi.sourceforge.net/DTD/sodipodi-0.dtd" xmlns:svg="http://www.w3.org/2000/svg" xmlns:inkscape="http://www.inkscape.org/namespaces/inkscape" inkscape:export-filename="../../png/close/close_3.png" inkscape:export-xdpi="96" inkscape:export-ydpi="96" inkscape:version="1.2.1 (9c6d41e410, 2022-07-14)"
	 xmlns="http://www.w3.org/2000/svg" xmlns:xlink="http://www.w3.org/1999/xlink" x="0px" y="0px" viewBox="0 0 32 32"
	 style="enable-background:new 0 0 32 32;" xml:space="preserve">
<style type="text/css">
	.st0{fill-rule:evenodd;clip-rule:evenodd;fill:#E6509D;}
</style>
<sodipodi:namedview  bordercolor="#ffffff" borderopacity="1" id="namedview4251" inkscape:current-layer="layer1" inkscape:cx="16.606346" inkscape:cy="11.771587" inkscape:deskcolor="#505050" inkscape:document-units="mm" inkscape:pagecheckerboard="1" inkscape:pageopacity="0" inkscape:showpageshadow="0" inkscape:window-height="724" inkscape:window-maximized="1" inkscape:window-width="1260" inkscape:window-x="10" inkscape:window-y="66" inkscape:zoom="4.7572175" pagecolor="#505050" showgrid="false">
	</sodipodi:namedview>
<g id="layer1" inkscape:groupmode="layer" inkscape:label="Layer 1">
	<path id="mdi-close-normal" class="st0" d="M16,0C7.2,0,0,7.2,0,16s7.2,16,16,16l0,0c8.8,0,16-7.2,16-16l0,0C32,7.2,24.8,0,16,0
		L16,0z M11,8.9c0.5,0,1.1,0.2,1.5,0.6L16,13l3.5-3.5c0.8-0.8,2.1-0.8,2.9,0s0.8,2.1,0,2.9L18.9,16l3.5,3.5c0.8,0.8,0.8,2.1,0,2.9
		s-2.1,0.8-2.9,0L16,18.9l-3.5,3.5c-0.8,0.8-2.1,0.8-2.9,0c-0.8-0.8-0.8-2.1,0-2.9l3.5-3.5l-3.5-3.5c-0.8-0.8-0.8-2.1,0-2.9
		C10,9.1,10.5,8.9,11,8.9z"/>
</g>
</svg>
