<?xml version="1.0" encoding="utf-8"?>
<!-- Generator: Adobe Illustrator 28.1.0, SVG Export Plug-In . SVG Version: 6.00 Build 0)  -->
<svg version="1.1"
	 id="svg4249" xmlns:sodipodi="http://sodipodi.sourceforge.net/DTD/sodipodi-0.dtd" xmlns:svg="http://www.w3.org/2000/svg" xmlns:inkscape="http://www.inkscape.org/namespaces/inkscape" inkscape:export-filename="../../png/minimize/minimize_3.png" inkscape:export-xdpi="96" inkscape:export-ydpi="96" inkscape:version="1.2.1 (9c6d41e410, 2022-07-14)"
	 xmlns="http://www.w3.org/2000/svg" xmlns:xlink="http://www.w3.org/1999/xlink" x="0px" y="0px" viewBox="0 0 32 32"
	 style="enable-background:new 0 0 32 32;" xml:space="preserve">
<style type="text/css">
	.st0{fill-rule:evenodd;clip-rule:evenodd;fill:#802CC9;}
	.st1{fill:#FFFFFF;}
</style>
<sodipodi:namedview  bordercolor="#ffffff" borderopacity="1" id="namedview4251" inkscape:current-layer="layer1" inkscape:cx="31.643028" inkscape:cy="18.384776" inkscape:deskcolor="#505050" inkscape:document-units="mm" inkscape:pagecheckerboard="1" inkscape:pageopacity="0" inkscape:showpageshadow="0" inkscape:window-height="724" inkscape:window-maximized="1" inkscape:window-width="1260" inkscape:window-x="10" inkscape:window-y="66" inkscape:zoom="5.6568543" pagecolor="#505050" showgrid="false">
	</sodipodi:namedview>
<g id="layer1" inkscape:groupmode="layer" inkscape:label="Layer 1">
	<path id="mdi-close-normal" class="st0" d="M16,0C7.2,0,0,7.2,0,16c0,8.8,7.2,16,16,16c0,0,0,0,0,0c8.8,0,16-7.2,16-16c0,0,0,0,0,0
		C32,7.2,24.8,0,16,0C16,0,16,0,16,0z M6.4,14.4h19.3c0.7,0,1.4,0.7,1.4,1.6v0c0,0.9-0.6,1.6-1.4,1.6H6.4C5.6,17.6,5,16.9,5,16v0
		C5,15.1,5.6,14.4,6.4,14.4z"/>
	<path id="path7007" class="st1" d="M40.7,22l-0.1-9.9"/>
</g>
</svg>
